<svg width="169" height="38" viewBox="0 0 169 38" fill="none" xmlns="http://www.w3.org/2000/svg">
<path d="M165.354 3.80495C165.206 3.84413 162.894 4.72169 160.222 5.7638C157.55 6.80591 154.181 8.11442 152.739 8.67857C149.66 9.86954 149.355 10.0106 148.43 10.6296C147.168 11.4758 146.048 12.7295 145.366 14.085C144.967 14.8764 139.122 29.7479 139.012 30.2416C138.824 31.127 139.169 32.2396 139.85 32.9134C140.524 33.5951 141.637 33.9399 142.522 33.7518C143.024 33.6421 157.449 27.8283 158.498 27.3033C160.277 26.4336 161.742 24.9683 162.643 23.1584C162.831 22.7901 164.336 19.1075 165.989 14.9704L168.998 7.44841V6.74322C168.998 6.11639 168.974 5.98319 168.747 5.51307C168.261 4.4788 167.305 3.82062 166.201 3.76577C165.887 3.74227 165.503 3.76578 165.354 3.80495Z" fill="#0CB865"/>
<path d="M152.559 11.2985C151.368 11.5328 150.372 12.2835 149.833 13.3553C149.772 13.4724 149.668 13.7371 149.599 13.9411C149.486 14.2839 149.477 14.362 149.477 15.0042C149.472 15.8199 149.52 16.0369 149.842 16.6965C150.216 17.4645 150.79 18.0373 151.559 18.4105C152.211 18.7272 152.437 18.7793 153.232 18.7793C154.023 18.7793 154.354 18.7055 154.975 18.3844C155.701 18.0113 156.258 17.4428 156.623 16.6965C156.944 16.0369 156.992 15.8243 156.988 15.0042C156.988 14.3663 156.975 14.2795 156.866 13.9411C156.436 12.6306 155.484 11.7194 154.163 11.3549C153.854 11.2724 152.876 11.2377 152.559 11.2985Z" fill="white"/>
<path d="M149.637 19.1009C149.317 19.5132 148.984 20.1636 148.853 20.6438C148.774 20.9201 148.752 21.1411 148.734 21.8382C148.708 22.8286 148.739 23.0241 148.988 23.5086C149.299 24.1164 149.992 24.6222 150.666 24.7412C151.026 24.805 155.446 24.805 155.801 24.7412C156.493 24.618 157.159 24.1292 157.483 23.5044C157.728 23.0283 157.759 22.8243 157.733 21.8382C157.711 20.8564 157.636 20.5248 157.295 19.8405C157.071 19.39 156.581 18.7354 156.506 18.7822C156.475 18.7992 156.335 18.8969 156.191 18.9989C155.818 19.2667 155.03 19.628 154.521 19.7598C154.123 19.866 154.022 19.8745 153.234 19.8745C152.441 19.8745 152.349 19.866 151.941 19.7598C151.433 19.6237 150.653 19.271 150.276 18.9989C150.132 18.8969 149.992 18.7992 149.961 18.7822C149.93 18.7609 149.808 18.8842 149.637 19.1009Z" fill="white"/>
<path d="M14.4022 10.3429H11.2243C11.1662 9.93177 11.0477 9.56658 10.8688 9.24734C10.6898 8.92326 10.46 8.64755 10.1795 8.42021C9.89893 8.19287 9.57485 8.01874 9.20724 7.89781C8.84446 7.77689 8.45025 7.71642 8.02459 7.71642C7.25551 7.71642 6.58558 7.90749 6.01482 8.28961C5.44405 8.6669 5.00146 9.21831 4.68706 9.94387C4.37265 10.6646 4.21545 11.5401 4.21545 12.5704C4.21545 13.6297 4.37265 14.5197 4.68706 15.2404C5.0063 15.9611 5.45131 16.5053 6.02207 16.8729C6.59284 17.2405 7.25309 17.4243 8.00283 17.4243C8.42365 17.4243 8.81302 17.3687 9.17096 17.2574C9.53374 17.1462 9.8554 16.9841 10.1359 16.7713C10.4165 16.5536 10.6487 16.29 10.8325 15.9804C11.0211 15.6709 11.1517 15.3178 11.2243 14.9211L14.4022 14.9357C14.32 15.6177 14.1144 16.2755 13.7855 16.9092C13.4614 17.538 13.0236 18.1015 12.4722 18.5997C11.9256 19.0931 11.2726 19.4849 10.5132 19.7751C9.75866 20.0605 8.90493 20.2032 7.95204 20.2032C6.6267 20.2032 5.44163 19.9033 4.39684 19.3035C3.35688 18.7037 2.53459 17.8354 1.92997 16.6987C1.33018 15.562 1.03028 14.1859 1.03028 12.5704C1.03028 10.95 1.33501 9.57142 1.94448 8.43472C2.55394 7.29802 3.38107 6.4322 4.42586 5.83725C5.47065 5.23746 6.64605 4.93756 7.95204 4.93756C8.81302 4.93756 9.61113 5.05849 10.3464 5.30034C11.0864 5.54219 11.7418 5.89529 12.3126 6.35964C12.8834 6.81916 13.3477 7.38267 13.7057 8.05018C14.0684 8.71768 14.3006 9.48193 14.4022 10.3429ZM20.4392 20H17.0726L22.2023 5.14072H26.2509L31.3732 20H28.0067L24.2846 8.5363H24.1685L20.4392 20ZM20.2288 14.1593H28.1808V16.6117H20.2288V14.1593ZM47.0927 5.14072V20H44.3792L37.9145 10.6476H37.8057V20H34.664V5.14072H37.4211L43.835 14.4858H43.9656V5.14072H47.0927ZM56.4582 20H51.1907V5.14072H56.5017C57.9964 5.14072 59.283 5.43819 60.3617 6.03315C61.4403 6.62326 62.2699 7.47216 62.8503 8.57983C63.4356 9.6875 63.7282 11.0128 63.7282 12.5558C63.7282 14.1037 63.4356 15.4339 62.8503 16.5464C62.2699 17.6589 61.4355 18.5126 60.3472 19.1076C59.2637 19.7025 57.9673 20 56.4582 20ZM54.3323 17.3082H56.3276C57.2563 17.3082 58.0375 17.1437 58.6711 16.8148C59.3096 16.4811 59.7885 15.9659 60.1077 15.2694C60.4318 14.568 60.5938 13.6635 60.5938 12.5558C60.5938 11.4578 60.4318 10.5606 60.1077 9.86406C59.7885 9.16753 59.312 8.6548 58.6784 8.32589C58.0447 7.99697 57.2636 7.83251 56.3349 7.83251H54.3323V17.3082ZM70.6994 5.14072V20H67.5577V5.14072H70.6994ZM80.054 20H74.7865V5.14072H80.0975C81.5921 5.14072 82.8788 5.43819 83.9574 6.03315C85.0361 6.62326 85.8656 7.47216 86.4461 8.57983C87.0313 9.6875 87.324 11.0128 87.324 12.5558C87.324 14.1037 87.0313 15.4339 86.4461 16.5464C85.8656 17.6589 85.0312 18.5126 83.9429 19.1076C82.8594 19.7025 81.5631 20 80.054 20ZM77.9281 17.3082H79.9234C80.8521 17.3082 81.6332 17.1437 82.2669 16.8148C82.9054 16.4811 83.3842 15.9659 83.7035 15.2694C84.0276 14.568 84.1896 13.6635 84.1896 12.5558C84.1896 11.4578 84.0276 10.5606 83.7035 9.86406C83.3842 9.16753 82.9078 8.6548 82.2742 8.32589C81.6405 7.99697 80.8593 7.83251 79.9306 7.83251H77.9281V17.3082ZM92.8767 20H89.5101L94.6398 5.14072H98.6884L103.811 20H100.444L96.7221 8.5363H96.606L92.8767 20ZM92.6663 14.1593H100.618V16.6117H92.6663V14.1593ZM104.72 7.73094V5.14072H116.924V7.73094H112.374V20H109.269V7.73094H104.72ZM120.436 20V5.14072H130.448V7.73094H123.577V11.2716H129.933V13.8618H123.577V17.4098H130.477V20H120.436Z" fill="#0CB865"/>
<path d="M10.7476 27.3976H9.24952C9.19191 27.0775 9.08467 26.7958 8.92783 26.5526C8.77098 26.3093 8.57892 26.1028 8.35165 25.9332C8.12439 25.7635 7.86991 25.6355 7.58823 25.5491C7.30974 25.4626 7.01365 25.4194 6.69996 25.4194C6.13339 25.4194 5.62604 25.5619 5.1779 25.8467C4.73297 26.1316 4.38086 26.5494 4.12159 27.0999C3.86551 27.6505 3.73747 28.3227 3.73747 29.1165C3.73747 29.9168 3.86551 30.5922 4.12159 31.1427C4.38086 31.6933 4.73457 32.1094 5.1827 32.3911C5.63084 32.6728 6.13499 32.8136 6.69516 32.8136C7.00565 32.8136 7.30014 32.772 7.57862 32.6888C7.86031 32.6024 8.11478 32.4759 8.34205 32.3095C8.56932 32.143 8.76138 31.9398 8.91822 31.6997C9.07827 31.4564 9.1887 31.1779 9.24952 30.8643L10.7476 30.8691C10.6675 31.3524 10.5123 31.7973 10.2818 32.2039C10.0546 32.6072 9.76168 32.9561 9.40317 33.2506C9.04786 33.5419 8.64134 33.7675 8.1836 33.9276C7.72587 34.0876 7.22652 34.1676 6.68555 34.1676C5.8341 34.1676 5.07547 33.966 4.40967 33.5627C3.74387 33.1561 3.21892 32.5752 2.8348 31.8197C2.45389 31.0643 2.26343 30.1632 2.26343 29.1165C2.26343 28.0666 2.45549 27.1655 2.8396 26.4133C3.22372 25.6579 3.74867 25.0785 4.41447 24.6752C5.08027 24.2687 5.8373 24.0654 6.68555 24.0654C7.20731 24.0654 7.69386 24.1406 8.14519 24.2911C8.59973 24.4383 9.00785 24.656 9.36956 24.9441C9.73127 25.229 10.0306 25.5779 10.2674 25.9908C10.5043 26.4005 10.6643 26.8695 10.7476 27.3976ZM31.5809 29.1165C31.5809 30.1664 31.3888 31.0691 31.0047 31.8245C30.6206 32.5768 30.094 33.1561 29.425 33.5627C28.7592 33.966 28.0022 34.1676 27.154 34.1676C26.3025 34.1676 25.5423 33.966 24.8733 33.5627C24.2075 33.1561 23.6825 32.5752 23.2984 31.8197C22.9143 31.0643 22.7222 30.1632 22.7222 29.1165C22.7222 28.0666 22.9143 27.1655 23.2984 26.4133C23.6825 25.6579 24.2075 25.0785 24.8733 24.6752C25.5423 24.2687 26.3025 24.0654 27.154 24.0654C28.0022 24.0654 28.7592 24.2687 29.425 24.6752C30.094 25.0785 30.6206 25.6579 31.0047 26.4133C31.3888 27.1655 31.5809 28.0666 31.5809 29.1165ZM30.1116 29.1165C30.1116 28.3163 29.982 27.6425 29.7227 27.0951C29.4666 26.5446 29.1145 26.1284 28.6664 25.8467C28.2215 25.5619 27.7173 25.4194 27.154 25.4194C26.5874 25.4194 26.0816 25.5619 25.6367 25.8467C25.1918 26.1284 24.8397 26.5446 24.5804 27.0951C24.3243 27.6425 24.1963 28.3163 24.1963 29.1165C24.1963 29.9168 24.3243 30.5922 24.5804 31.1427C24.8397 31.6901 25.1918 32.1062 25.6367 32.3911C26.0816 32.6728 26.5874 32.8136 27.154 32.8136C27.7173 32.8136 28.2215 32.6728 28.6664 32.3911C29.1145 32.1062 29.4666 31.6901 29.7227 31.1427C29.982 30.5922 30.1116 29.9168 30.1116 29.1165ZM43.9469 24.1999H45.7474L48.8779 31.8437H48.9932L52.1237 24.1999H53.9242V34.0332H52.5126V26.9175H52.4214L49.5213 34.0188H48.3498L45.4497 26.9127H45.3585V34.0332H43.9469V24.1999ZM66.5975 34.0332V24.1999H70.1026C70.8676 24.1999 71.5014 24.3391 72.0039 24.6176C72.5065 24.8961 72.8826 25.277 73.1323 25.7603C73.3819 26.2405 73.5068 26.7814 73.5068 27.3832C73.5068 27.9882 73.3803 28.5324 73.1275 29.0157C72.8778 29.4958 72.5001 29.8768 71.9943 30.1584C71.4918 30.4369 70.8596 30.5762 70.0978 30.5762H67.6874V29.3182H69.9633C70.4467 29.3182 70.8388 29.235 71.1397 29.0685C71.4406 28.8989 71.6614 28.6684 71.8023 28.3771C71.9431 28.0858 72.0135 27.7545 72.0135 27.3832C72.0135 27.0119 71.9431 26.6822 71.8023 26.3941C71.6614 26.106 71.439 25.8804 71.1349 25.7171C70.834 25.5539 70.4371 25.4722 69.9441 25.4722H68.0812V34.0332H66.5975ZM85.5499 34.0332H83.975L87.5136 24.1999H89.2278L92.7664 34.0332H91.1915L88.4115 25.986H88.3347L85.5499 34.0332ZM85.8139 30.1824H90.9227V31.4308H85.8139V30.1824ZM109.987 26.783C109.935 26.3285 109.724 25.9764 109.353 25.7267C108.982 25.4738 108.514 25.3474 107.951 25.3474C107.548 25.3474 107.199 25.4114 106.904 25.5395C106.61 25.6643 106.381 25.8371 106.218 26.058C106.057 26.2757 105.977 26.5238 105.977 26.8022C105.977 27.0359 106.032 27.2376 106.141 27.4072C106.253 27.5769 106.398 27.7193 106.578 27.8345C106.76 27.9466 106.955 28.041 107.163 28.1178C107.371 28.1915 107.572 28.2523 107.764 28.3003L108.724 28.55C109.038 28.6268 109.359 28.7308 109.689 28.8621C110.019 28.9933 110.324 29.1661 110.606 29.3806C110.888 29.5951 111.115 29.8608 111.288 30.1776C111.464 30.4945 111.552 30.8739 111.552 31.3156C111.552 31.8726 111.408 32.3671 111.12 32.7992C110.835 33.2314 110.42 33.5723 109.876 33.8219C109.335 34.0716 108.681 34.1965 107.912 34.1965C107.176 34.1965 106.539 34.0796 106.001 33.8459C105.464 33.6123 105.043 33.281 104.739 32.852C104.435 32.4199 104.267 31.9078 104.235 31.3156H105.723C105.752 31.6709 105.867 31.967 106.069 32.2039C106.274 32.4375 106.534 32.612 106.851 32.7272C107.171 32.8392 107.522 32.8953 107.903 32.8953C108.322 32.8953 108.695 32.8296 109.022 32.6984C109.351 32.564 109.611 32.3783 109.799 32.1414C109.988 31.9014 110.083 31.6213 110.083 31.3012C110.083 31.0099 109.999 30.7714 109.833 30.5858C109.67 30.4001 109.447 30.2465 109.166 30.1248C108.887 30.0032 108.572 29.896 108.22 29.8031L107.058 29.4862C106.27 29.2718 105.646 28.9565 105.185 28.5404C104.727 28.1242 104.499 27.5737 104.499 26.8887C104.499 26.3221 104.652 25.8275 104.96 25.405C105.267 24.9825 105.683 24.6544 106.208 24.4207C106.733 24.1839 107.325 24.0654 107.984 24.0654C108.65 24.0654 109.238 24.1822 109.747 24.4159C110.259 24.6496 110.662 24.9713 110.957 25.381C111.251 25.7875 111.405 26.2549 111.417 26.783H109.987ZM129.204 26.783C129.153 26.3285 128.942 25.9764 128.57 25.7267C128.199 25.4738 127.732 25.3474 127.168 25.3474C126.765 25.3474 126.416 25.4114 126.122 25.5395C125.827 25.6643 125.598 25.8371 125.435 26.058C125.275 26.2757 125.195 26.5238 125.195 26.8022C125.195 27.0359 125.249 27.2376 125.358 27.4072C125.47 27.5769 125.616 27.7193 125.795 27.8345C125.978 27.9466 126.173 28.041 126.381 28.1178C126.589 28.1915 126.789 28.2523 126.981 28.3003L127.941 28.55C128.255 28.6268 128.577 28.7308 128.907 28.8621C129.236 28.9933 129.542 29.1661 129.824 29.3806C130.105 29.5951 130.333 29.8608 130.505 30.1776C130.682 30.4945 130.77 30.8739 130.77 31.3156C130.77 31.8726 130.625 32.3671 130.337 32.7992C130.053 33.2314 129.638 33.5723 129.094 33.8219C128.553 34.0716 127.898 34.1965 127.13 34.1965C126.394 34.1965 125.757 34.0796 125.219 33.8459C124.681 33.6123 124.26 33.281 123.956 32.852C123.652 32.4199 123.484 31.9078 123.452 31.3156H124.941C124.969 31.6709 125.085 31.967 125.286 32.2039C125.491 32.4375 125.752 32.612 126.069 32.7272C126.389 32.8392 126.74 32.8953 127.12 32.8953C127.54 32.8953 127.913 32.8296 128.239 32.6984C128.569 32.564 128.828 32.3783 129.017 32.1414C129.206 31.9014 129.3 31.6213 129.3 31.3012C129.3 31.0099 129.217 30.7714 129.051 30.5858C128.887 30.4001 128.665 30.2465 128.383 30.1248C128.105 30.0032 127.789 29.896 127.437 29.8031L126.275 29.4862C125.488 29.2718 124.864 28.9565 124.403 28.5404C123.945 28.1242 123.716 27.5737 123.716 26.8887C123.716 26.3221 123.87 25.8275 124.177 25.405C124.484 24.9825 124.901 24.6544 125.426 24.4207C125.95 24.1839 126.543 24.0654 127.202 24.0654C127.868 24.0654 128.455 24.1822 128.964 24.4159C129.476 24.6496 129.88 24.9713 130.174 25.381C130.469 25.7875 130.622 26.2549 130.635 26.783H129.204Z" fill="#A9A9A9"/>
</svg>
